<mxfile host="app.diagrams.net" modified="2023-07-12T13:53:19.520Z" agent="Mozilla/5.0 (Windows NT 6.1; Win64; x64; rv:109.0) Gecko/20100101 Firefox/114.0" version="21.6.2" etag="RzsYJnVIqovMjc7mkQc8" type="github">
  <diagram name="Page-1" id="ecuag5rOXfhoBvZdAmp7">
    <mxGraphModel>
      <root>
        <mxCell id="0" />
        <mxCell id="1" parent="0" />
      </root>
    </mxGraphModel>
  </diagram>
</mxfile>
